<svg width="40" height="40" viewBox="0 0 40 40" fill="none" xmlns="http://www.w3.org/2000/svg">
  <!-- Kidpen Logo: Lightbulb with Pencil tip -->
  <!-- Lightbulb body -->
  <path d="M20 4C13.373 4 8 9.373 8 16C8 20.127 10.222 23.743 13.5 25.773V28C13.5 28.552 13.948 29 14.5 29H25.5C26.052 29 26.5 28.552 26.5 28V25.773C29.778 23.743 32 20.127 32 16C32 9.373 26.627 4 20 4Z" fill="#F5A623"/>
  <!-- Lightbulb base -->
  <rect x="14" y="30" width="12" height="2" rx="0.5" fill="#F5A623"/>
  <rect x="15" y="33" width="10" height="2" rx="0.5" fill="#F5A623"/>
  <!-- Pencil tip integrated at bottom -->
  <path d="M17 36L20 40L23 36H17Z" fill="#F5A623"/>
  <!-- Light rays (stylized) -->
  <path d="M20 0V2" stroke="#F5A623" stroke-width="2" stroke-linecap="round"/>
  <path d="M32 8L34 6" stroke="#F5A623" stroke-width="2" stroke-linecap="round"/>
  <path d="M8 8L6 6" stroke="#F5A623" stroke-width="2" stroke-linecap="round"/>
  <path d="M36 16H38" stroke="#F5A623" stroke-width="2" stroke-linecap="round"/>
  <path d="M2 16H4" stroke="#F5A623" stroke-width="2" stroke-linecap="round"/>
</svg>
